<svg version="1.1" xmlns="http://www.w3.org/2000/svg" xmlns:xlink="http://www.w3.org/1999/xlink" width="48" height="48"><defs><linearGradient x1="16.00627" y1="14.22989" x2="53.20692" y2="54.9833" gradientUnits="userSpaceOnUse" id="color-1"><stop offset="0" stop-color="#000000" stop-opacity="0.37"></stop><stop offset="1" stop-color="#000000" stop-opacity="0"></stop></linearGradient><linearGradient x1="33.625" y1="14.375" x2="43" y2="23.75" gradientUnits="userSpaceOnUse" id="color-2"><stop offset="0" stop-color="#000000" stop-opacity="0.37"></stop><stop offset="1" stop-color="#000000" stop-opacity="0"></stop></linearGradient><filter id="dropshadow-base"><feColorMatrix type="matrix" values="0 0 0 0 0  0 0 0 0 0  0 0 0 0 0  0 0 0 .8 0"></feColorMatrix> <feOffset dx="0" dy="1"></feOffset> <feGaussianBlur stdDeviation="1"></feGaussianBlur> <feComposite in="SourceGraphic"></feComposite></filter><filter id="dropshadow-banner" x="-10%" y="-10%" width="120%" height="130%"><feColorMatrix type="matrix" values="0 0 0 0 0  0 0 0 0 0  0 0 0 0 0  0 0 0 .4 0"></feColorMatrix> <feOffset dx="0" dy="1"></feOffset> <feGaussianBlur stdDeviation="0.5"></feGaussianBlur> <feComposite in="SourceGraphic"></feComposite></filter></defs><g fill="none" fill-rule="nonzero" stroke="none" stroke-width="none" stroke-linecap="butt" stroke-linejoin="miter" stroke-miterlimit="10" stroke-dasharray="" stroke-dashoffset="0" font-family="none" font-weight="none" font-size="none" text-anchor="none" style="mix-blend-mode: normal"><path d="M7,43c-1.10457,0 -2,-0.89543 -2,-2v-34c0,-1.10457 0.89543,-2 2,-2l26,0l10,10v26c0,1.10457 -0.89543,2 -2,2z" id="base 1 5 1 2" fill="#008577" stroke-width="1"></path><path d="M16.52642,33.24995c-0.32141,-0.32141 -0.52015,-0.76551 -0.52015,-1.25623v-14.21106c0,-0.98145 0.79493,-1.77638 1.77638,-1.77638h3.71709c0.36416,-1.0303 1.34117,-1.77638 2.50026,-1.77638c0.73147,0 1.39042,0.29713 1.8686,0.7753l1.00108,1.00108l3.34767,0c0.49072,0 0.93481,0.19873 1.25623,0.52015l11.52643,11.52643v12.94715c0,1.10457 -0.89543,2 -2,2h-14.72353z" fill="url(#color-1)" stroke-width="1"></path><path d="M30.21734,16.00627h-3.71708c-0.36416,-1.0303 -1.34117,-1.77638 -2.50026,-1.77638c-1.15909,0 -2.1361,0.74608 -2.50026,1.77638h-3.71708c-0.98145,0 -1.77638,0.79493 -1.77638,1.77638v14.21107c0,0.98145 0.79493,1.77638 1.77638,1.77638h12.43468c0.98145,0 1.77638,-0.79493 1.77638,-1.77638v-14.21107c0,-0.98145 -0.79493,-1.77638 -1.77638,-1.77638zM24,16.00627c0.48851,0 0.88819,0.39525 0.88819,0.88819c0,0.49295 -0.39969,0.88819 -0.88819,0.88819c-0.48851,0 -0.88819,-0.39525 -0.88819,-0.88819c0,-0.49295 0.39969,-0.88819 0.88819,-0.88819zM30.21734,31.99373h-12.43468v-14.21107h1.77638v2.66458h8.88192v-2.66458h1.77638z" fill="none" stroke-width="0"></path><path d="M31.99373,17.78266v14.21107c0,0.98145 -0.79493,1.77638 -1.77638,1.77638h-12.43468c-0.98145,0 -1.77638,-0.79493 -1.77638,-1.77638v-14.21107c0,-0.98145 0.79493,-1.77638 1.77638,-1.77638h3.71708c0.36416,-1.0303 1.34117,-1.77638 2.50026,-1.77638c1.15909,0 2.1361,0.74608 2.50026,1.77638h3.71708c0.98145,0 1.77638,0.79493 1.77638,1.77638zM23.11181,16.89447c0,0.49295 0.39969,0.88819 0.88819,0.88819c0.48851,0 0.88819,-0.39525 0.88819,-0.88819c0,-0.49295 -0.39969,-0.88819 -0.88819,-0.88819c-0.48851,0 -0.88819,0.39525 -0.88819,0.88819zM30.21734,17.78266h-1.77638v2.66458h-8.88192v-2.66458h-1.77638v14.21107h12.43468z" fill="#ffffff" stroke-width="0"></path><path d="M2,24c0,-12.15026 9.84974,-22 22,-22c12.15026,0 22,9.84974 22,22c0,12.15026 -9.84974,22 -22,22c-12.15026,0 -22,-9.84974 -22,-22z" id="base 1 1 1" fill="none" stroke-width="1"></path><g fill="#000000" stroke-width="1" font-family="Roboto, sans-serif" font-weight="400" font-size="14" text-anchor="start"></g><rect x="2" y="2" width="44" height="22" fill="none" stroke-width="1"></rect><path d="M2,24v-22h44v22z" fill="none" stroke-width="1"></path><path d="M2,24v-22h44v22z" fill="none" stroke-width="1"></path><path d="M2,24v-22h44v22z" fill="none" stroke-width="1"></path><path d="M2,24v-22h44v22z" fill="none" stroke-width="1"></path><path d="M33.625,14.375l9.375,0.625v8.75z" fill="url(#color-2)" stroke-width="1"></path><path d="M33,5l10,10h-8c-1,0 -2,-1 -2,-2z" fill="#1ea395" stroke-width="1"></path></g></svg>